<svg xmlns="http://www.w3.org/2000/svg" width="50" height="50" viewBox="0 0 50 50">
  <g id="Ellipse_12" data-name="Ellipse 12" fill="#e27866" stroke="#e27866" stroke-width="1">
    <circle cx="25" cy="25" r="25" stroke="none"/>
    <circle cx="25" cy="25" r="24.5" fill="none"/>
  </g>
  <path id="Path_81" data-name="Path 81" d="M13.5,67.75a5.2,5.2,0,0,0-1.464.234,2.6,2.6,0,0,1,.339,1.266,2.625,2.625,0,0,1-2.625,2.625,2.6,2.6,0,0,1-1.266-.339A5.236,5.236,0,1,0,13.5,67.75Zm13.337,4.566A15.035,15.035,0,0,0,13.5,64,15.037,15.037,0,0,0,.164,72.316a1.516,1.516,0,0,0,0,1.368A15.035,15.035,0,0,0,13.5,82a15.037,15.037,0,0,0,13.337-8.316A1.516,1.516,0,0,0,26.837,72.316ZM13.5,79.75A12.751,12.751,0,0,1,2.348,73,12.751,12.751,0,0,1,13.5,66.25,12.751,12.751,0,0,1,24.653,73,12.75,12.75,0,0,1,13.5,79.75Z" transform="translate(12 -48)" fill="#fff"/></svg>