   <svg xmlns="http://www.w3.org/2000/svg" width="50" height="50" viewBox="0 0 50 50">
                    <g id="Ellipse_13" data-name="Ellipse 13" fill="#e27866" stroke="#e27866" stroke-width="1">
                      <circle cx="25" cy="25" r="25" stroke="none"/>
                      <circle cx="25" cy="25" r="24.5" fill="none"/>
                    </g>
                    <path id="Path_82" data-name="Path 82" d="M10.655,32C4.735,32-.064,35.9-.064,40.709A7.7,7.7,0,0,0,2.151,46,10.625,10.625,0,0,1,.209,49.063a1.005,1.005,0,0,0,.733,1.7A10.16,10.16,0,0,0,6.766,48.82a12.932,12.932,0,0,0,3.89.6c5.921,0,10.719-3.9,10.719-8.709S16.576,32,10.655,32Zm0,15.409A10.881,10.881,0,0,1,7.373,46.9l-.95-.3-.816.578A9,9,0,0,1,3.2,48.393a10.5,10.5,0,0,0,.833-1.683l.444-1.177-.863-.913a5.759,5.759,0,0,1-1.666-3.911c0-3.693,3.907-6.7,8.709-6.7s8.709,3.006,8.709,6.7S15.458,47.409,10.655,47.409Z" transform="translate(16.066 -16)" fill="#fff"/>
                  </svg>