<svg xmlns="http://www.w3.org/2000/svg" width="50" height="50" viewBox="0 0 50 50">
  <g id="Group_73" data-name="Group 73" transform="translate(-401 -2827)">
    <path id="Path_76" data-name="Path 76" d="M20.3,37.711a11.426,11.426,0,0,0-7.64,2.965,9.181,9.181,0,0,0-2.373,3.389,9.181,9.181,0,0,0-2.373-3.389,11.426,11.426,0,0,0-7.64-2.965A.272.272,0,0,0,0,37.991a9.893,9.893,0,0,0,3.171,7.12A9.483,9.483,0,0,0,10.289,48a9.482,9.482,0,0,0,7.118-2.89,9.892,9.892,0,0,0,3.171-7.12A.272.272,0,0,0,20.3,37.711ZM10.288,41.663a9.829,9.829,0,0,1,1.575-1.8,10.692,10.692,0,0,1,2.153-1.614,11.785,11.785,0,0,0-3.456-6.153.429.429,0,0,0-.541,0,11.785,11.785,0,0,0-3.456,6.148,10.5,10.5,0,0,1,2.116,1.586A10.1,10.1,0,0,1,10.288,41.663Z" transform="translate(416 2812.005)" fill="#e27866"/>
    <g id="Ellipse_9" data-name="Ellipse 9" transform="translate(401 2827)" fill="none" stroke="#e27866" stroke-width="1">
      <circle cx="25" cy="25" r="25" stroke="none"/>
      <circle cx="25" cy="25" r="24.5" fill="none"/>
    </g>
  </g>
</svg>
