<svg xmlns="http://www.w3.org/2000/svg" width="8.456" height="19.734" viewBox="0 0 8.456 19.734">
  <g id="thermometer-svgrepo-com" transform="translate(-126.052)">
    <g id="Group_140" data-name="Group 140" transform="translate(126.052)">
      <g id="Group_139" data-name="Group 139" transform="translate(0)">
        <path id="Path_83" data-name="Path 83" d="M132.662,12.013V2.382a2.382,2.382,0,0,0-4.763,0v9.631a4.228,4.228,0,0,0,2.154,7.715q.116.006.231.006a4.228,4.228,0,0,0,2.379-7.721Zm.066,6.074a3.529,3.529,0,0,1-2.64.971,3.557,3.557,0,0,1-1.677-6.578.335.335,0,0,0,.159-.285V2.382a1.71,1.71,0,1,1,3.421,0v9.813a.335.335,0,0,0,.159.285,3.557,3.557,0,0,1,.578,5.607Z" transform="translate(-126.052)" fill="#fff"/>
        <path id="Path_84" data-name="Path 84" d="M157.126,62.324a.336.336,0,0,0-.64.2,2.452,2.452,0,0,1,.114.742,2.439,2.439,0,0,1-2.572,2.435,2.438,2.438,0,0,1-1.147-4.51l.53-.328a.335.335,0,0,0,.159-.285v-9.91h1.184v9.91a.336.336,0,0,0,.159.285l.53.328a.336.336,0,0,0,.353-.571l-.371-.23V50.336A.335.335,0,0,0,155.09,50h-1.855a.336.336,0,0,0-.336.336V60.394l-.371.23a3.109,3.109,0,0,0,1.465,5.751c.056,0,.113,0,.169,0a3.109,3.109,0,0,0,3.109-3.11A3.125,3.125,0,0,0,157.126,62.324Z" transform="translate(-149.934 -47.763)" fill="#fff"/>
        <path id="Path_85" data-name="Path 85" d="M261.9,301.1a.335.335,0,1,0-.164-.628.335.335,0,0,0,.164.628Z" transform="translate(-255.5 -286.994)" fill="#fff"/>
      </g>
    </g>
  </g>
</svg>
