<svg xmlns="http://www.w3.org/2000/svg" width="50" height="50" viewBox="0 0 50 50">
  <g id="Group_72" data-name="Group 72" transform="translate(-500 -2832)">
    <g id="Ellipse_10" data-name="Ellipse 10" transform="translate(500 2832)" fill="none" stroke="#e27866" stroke-width="1">
      <circle cx="25" cy="25" r="25" stroke="none"/>
      <circle cx="25" cy="25" r="24.5" fill="none"/>
    </g>
    <path id="Path_78" data-name="Path 78" d="M18.99,40.051s.307,1.5.376,1.818H18.017c.133-.36.646-1.757.646-1.757s.133-.368.214-.6l.113.541Zm4.278-6.112v14.22A1.94,1.94,0,0,1,21.329,50.1H1.939A1.94,1.94,0,0,1,0,48.159V33.939A1.94,1.94,0,0,1,1.939,32h19.39A1.94,1.94,0,0,1,23.268,33.939ZM6.16,44.087l2.553-6.27H7L5.409,42.1l-.174-.869L4.67,38.346a.676.676,0,0,0-.735-.529H1.321l-.028.125a6.41,6.41,0,0,1,1.7.691l1.446,5.454Zm3.813.008,1.018-6.278H9.368L8.354,44.095Zm5.651-2.052c.008-.715-.428-1.26-1.361-1.709-.57-.287-.917-.481-.917-.776.008-.267.295-.541.933-.541a2.784,2.784,0,0,1,1.208.238l.145.069.222-1.357A4.034,4.034,0,0,0,14.4,37.7c-1.6,0-2.731.856-2.739,2.076-.012.9.808,1.4,1.422,1.7s.84.509.84.78c-.008.42-.509.614-.974.614a3.236,3.236,0,0,1-1.523-.335l-.214-.1-.226,1.41a4.957,4.957,0,0,0,1.81.335c1.7,0,2.816-.84,2.828-2.141Zm5.7,2.052-1.309-6.278H18.764a.8.8,0,0,0-.848.521L15.5,44.095h1.7s.279-.776.339-.941h2.084c.048.222.194.941.194.941Z" transform="translate(513 2816)" fill="#e27866"/>
  </g>
</svg>
