<svg xmlns="http://www.w3.org/2000/svg" width="30.003" height="30" viewBox="0 0 30.003 30">
  <g id="Group_87" data-name="Group 87" opacity="0.653">
    <path id="Path_68" data-name="Path 68" d="M4.091,292.382a3.946,3.946,0,0,0-2.9,1.193,4.116,4.116,0,0,0,0,5.8,3.947,3.947,0,0,0,2.9,1.193,3.946,3.946,0,0,0,2.9-1.193,4.115,4.115,0,0,0,0-5.8A3.945,3.945,0,0,0,4.091,292.382Z" transform="translate(0 -270.564)" fill="#e27866"/>
    <path id="Path_69" data-name="Path 69" d="M13.508,151.783a18.838,18.838,0,0,0-5.518-3.867A19.1,19.1,0,0,0,1.47,146.2H1.364a1.241,1.241,0,0,0-.916.362,1.255,1.255,0,0,0-.447,1v2.876a1.311,1.311,0,0,0,.351.916,1.294,1.294,0,0,0,.884.426,13.253,13.253,0,0,1,8.341,3.931,13.25,13.25,0,0,1,3.931,8.341,1.332,1.332,0,0,0,1.342,1.236h2.876a1.255,1.255,0,0,0,1-.447,1.292,1.292,0,0,0,.363-1.023,19.114,19.114,0,0,0-1.715-6.519A18.84,18.84,0,0,0,13.508,151.783Z" transform="translate(0 -135.292)" fill="#e27866"/>
    <path id="Path_70" data-name="Path 70" d="M27.442,17.907a29.871,29.871,0,0,0-6.264-9.066,29.868,29.868,0,0,0-9.066-6.264A29.567,29.567,0,0,0,1.427.02H1.364A1.275,1.275,0,0,0,.426.4,1.26,1.26,0,0,0,0,1.384V4.43a1.305,1.305,0,0,0,.373.927,1.275,1.275,0,0,0,.905.416,24.14,24.14,0,0,1,8.7,2.174,24.5,24.5,0,0,1,7.159,4.932,24.5,24.5,0,0,1,4.932,7.159,23.818,23.818,0,0,1,2.152,8.7,1.276,1.276,0,0,0,.415.906,1.333,1.333,0,0,0,.949.373h3.046a1.259,1.259,0,0,0,.98-.426,1.233,1.233,0,0,0,.384-1A29.564,29.564,0,0,0,27.442,17.907Z" transform="translate(0 -0.02)" fill="#e27866"/>
  </g>
</svg>
